<?xml version="1.0" encoding="utf-8"?>
<!-- Generator: Adobe Illustrator 25.4.1, SVG Export Plug-In . SVG Version: 6.00 Build 0)  -->
<svg version="1.1" id="Capa_1" xmlns="http://www.w3.org/2000/svg" xmlns:xlink="http://www.w3.org/1999/xlink" x="0px" y="0px"
	 viewBox="0 0 226.71 184.64" style="enable-background:new 0 0 226.71 184.64;" xml:space="preserve">
<style type="text/css">
	.st0{fill:#FFFFFF;stroke:#FFFFFF;stroke-width:8;stroke-miterlimit:10;}
</style>
<g>
	<path class="st0" d="M198.27,50.89H28.29c-12.43,0-22.51-10.08-22.51-22.51v0c0-12.43,10.08-22.51,22.51-22.51h169.99
		c12.43,0,22.51,10.08,22.51,22.51v0C220.79,40.81,210.71,50.89,198.27,50.89z"/>
	<path class="st0" d="M198.27,114.67H28.29c-12.43,0-22.51-10.08-22.51-22.51v0c0-12.43,10.08-22.51,22.51-22.51h169.99
		c12.43,0,22.51,10.08,22.51,22.51v0C220.79,104.59,210.71,114.67,198.27,114.67z"/>
	<path class="st0" d="M198.27,178.46H28.29c-12.43,0-22.51-10.08-22.51-22.51v0c0-12.43,10.08-22.51,22.51-22.51h169.99
		c12.43,0,22.51,10.08,22.51,22.51v0C220.79,168.38,210.71,178.46,198.27,178.46z"/>
</g>
</svg>
